<svg width="236" height="60" viewBox="0 0 236 60" fill="none" xmlns="http://www.w3.org/2000/svg">
<path d="M0.000209808 20L19.8516 20L19.8516 -7.62939e-06L0.000209808 -7.62939e-06L0.000209808 20Z" fill="#E8CB3C"/>
<path d="M39.7029 50C39.7029 44.4771 35.2591 40 29.7773 40C24.2954 40 19.8516 44.4771 19.8516 50C19.8516 55.5228 24.2954 60 29.7773 60C35.2591 60 39.7029 55.5228 39.7029 50Z" fill="#0091F0"/>
<path d="M9.92587 40H0.000209808V30C0.000209808 27.3479 1.04595 24.8043 2.90737 22.9289C4.7688 21.0536 7.29342 20 9.92587 20H19.8516L19.8516 30C19.8516 32.6522 18.8058 35.1957 16.9444 37.0711C15.083 38.9464 12.5583 40 9.92587 40Z" fill="#E10E1A"/>
<path d="M9.92569 40H19.8514V50C19.8514 52.6522 18.8056 55.1957 16.9442 57.0711C15.0828 58.9464 12.5581 60 9.92569 60C7.29323 60 4.76859 58.9464 2.90716 57.0711C1.04574 55.1957 0 52.6522 0 50C0 47.3478 1.04574 44.8043 2.90716 42.9289C4.76859 41.0536 7.29323 40 9.92569 40Z" fill="#C200A9"/>
<path d="M36.79 22.9268C35.8684 21.9977 34.7739 21.2609 33.5692 20.7587C32.3645 20.2564 31.0732 19.9986 29.7694 20C28.4656 19.9986 27.1744 20.2564 25.9697 20.7587C24.7649 21.2609 23.6704 21.9977 22.7488 22.9268C21.8263 23.8551 21.0947 24.9578 20.5962 26.1716C20.0976 27.3854 19.842 28.6864 19.8438 30C19.8438 32.6522 20.8895 35.1957 22.7509 37.0711C24.6123 38.9464 27.137 40 29.7694 40C31.0734 40.0007 32.3648 39.7422 33.5695 39.2393C34.7742 38.7364 35.8686 37.999 36.79 37.0693C37.7125 36.1418 38.444 35.0398 38.9425 33.8266C39.4411 32.6135 39.6968 31.313 39.6951 30C39.6969 28.6864 39.4412 27.3854 38.9427 26.1716C38.4442 24.9578 37.7126 23.8551 36.79 22.9268Z" fill="#8EC300"/>
<path d="M68.7721 47.9868C67.4027 48.0067 66.0505 47.6778 64.841 47.0306C63.6775 46.3953 62.7178 45.4391 62.0743 44.2741C61.3601 42.9419 61.0063 41.4438 61.0483 39.9303V25.8575H63.7727V35.1491H63.8304C64.1642 34.5327 64.6115 33.9861 65.1484 33.5385C65.7034 33.0751 66.334 32.7122 67.0121 32.4661C67.7187 32.206 68.4656 32.0749 69.2178 32.079C70.532 32.0573 71.8284 32.3858 72.976 33.0314C74.0818 33.6728 74.9891 34.611 75.5967 35.7414C76.2618 37.0131 76.5925 38.4352 76.5574 39.8722C76.5747 41.0263 76.3793 42.1737 75.981 43.2559C75.6232 44.2173 75.074 45.0947 74.367 45.8343C73.6759 46.5501 72.8379 47.105 71.9116 47.4603C70.9063 47.8294 69.8418 48.0079 68.7721 47.9868ZM68.7721 45.6291C69.6626 45.6389 70.5386 45.4019 71.3044 44.9439C72.0729 44.4761 72.701 43.8071 73.122 43.0081C73.5971 42.0889 73.8325 41.0631 73.806 40.0271C73.8285 39.0119 73.5987 38.0071 73.1374 37.1041C72.7224 36.3014 72.1048 35.6231 71.3467 35.1374C70.5847 34.6572 69.7015 34.4085 68.8028 34.4212C67.9122 34.4108 67.036 34.6479 66.2705 35.1065C65.5018 35.5777 64.878 36.2545 64.4683 37.0616C64.0031 37.9894 63.7734 39.0189 63.7996 40.0581C63.7741 41.0823 64.004 42.0966 64.4683 43.0081C64.8801 43.8087 65.5038 44.4787 66.2705 44.9439C67.0261 45.3993 67.8916 45.6364 68.7721 45.6291Z" fill="white"/>
<path d="M87.0649 47.9869C85.7254 48.0201 84.4064 47.6508 83.276 46.9261C82.2076 46.2163 81.3571 45.2201 80.8205 44.0496C80.237 42.7897 79.9428 41.4135 79.9598 40.0232C79.9409 38.619 80.2669 37.2319 80.9089 35.9853C81.5296 34.7898 82.4744 33.7963 83.6334 33.1204C84.9338 32.385 86.4081 32.0197 87.8988 32.0635C89.3383 32.0232 90.761 32.3835 92.0104 33.1049C93.138 33.7824 94.0551 34.764 94.6581 35.9389C95.2872 37.1726 95.6052 38.5434 95.5841 39.9303V47.6229H92.8328V44.5258H92.7713C92.4536 45.1328 92.0511 45.6908 91.5762 46.1828C91.0366 46.7323 90.3974 47.1725 89.6933 47.4797C88.8623 47.8332 87.9667 48.006 87.0649 47.9869ZM87.7758 45.6291C88.6996 45.6464 89.6085 45.3936 90.3927 44.9013C91.1607 44.4041 91.7766 43.7018 92.1718 42.8726C92.6034 41.9659 92.8205 40.9707 92.8059 39.9652C92.8213 38.9862 92.6136 38.0167 92.1987 37.1313C91.8169 36.3211 91.218 35.6346 90.4695 35.1491C89.6809 34.6503 88.7643 34.3959 87.8334 34.4174C86.8682 34.3887 85.9162 34.6487 85.0974 35.1646C84.3393 35.6577 83.7335 36.3552 83.349 37.1777C82.9328 38.0778 82.7252 39.0614 82.7419 40.0542C82.7301 41.0262 82.9322 41.9887 83.3336 42.8726C83.7087 43.6919 84.3037 44.3892 85.0513 44.8858C85.8665 45.3996 86.8146 45.6583 87.7758 45.6291Z" fill="white"/>
<path d="M107.723 47.9868C106.454 48.0071 105.199 47.7147 104.068 47.1351C103.025 46.5997 102.152 45.7785 101.551 44.7658C100.932 43.6886 100.619 42.4602 100.648 41.2156V32.4197H103.4V41.1885C103.379 42.0178 103.584 42.837 103.991 43.5579C104.368 44.2109 104.916 44.7467 105.575 45.1065C106.225 45.4598 106.953 45.6435 107.692 45.6407C108.441 45.6459 109.179 45.4622 109.84 45.1065C110.501 44.7449 111.052 44.2097 111.435 43.5579C111.854 42.8413 112.065 42.0201 112.042 41.1885V32.4197H114.797V41.2156C114.825 42.4621 114.507 43.6915 113.879 44.7658C113.273 45.7743 112.402 46.5943 111.362 47.1351C110.237 47.7163 108.987 48.0088 107.723 47.9868Z" fill="white"/>
<path d="M133.507 47.6268V34.7774H130.875V32.4197H133.507V30.1858C133.507 28.8308 133.892 27.7739 134.66 27.0074C135.429 26.2408 136.47 25.8459 137.811 25.8459H141.066V28.1998H138.345C138.064 28.1813 137.782 28.2225 137.517 28.3205C137.252 28.4185 137.011 28.5712 136.808 28.7689C136.433 29.205 136.242 29.7722 136.278 30.3484V32.4042H146.457V47.6113H143.737V34.7619H136.278V47.6113L133.507 47.6268ZM145.081 29.9458C144.841 29.9481 144.602 29.9 144.38 29.8048C144.159 29.7095 143.959 29.569 143.794 29.3922C143.619 29.2257 143.48 29.0245 143.385 28.8014C143.291 28.5782 143.243 28.3379 143.245 28.0952C143.244 27.8528 143.292 27.6126 143.387 27.3896C143.481 27.1666 143.62 26.9654 143.794 26.7983C143.96 26.6227 144.16 26.4833 144.381 26.3888C144.603 26.2942 144.841 26.2465 145.081 26.2485C145.325 26.2441 145.566 26.2907 145.79 26.3853C146.014 26.48 146.217 26.6206 146.384 26.7983C146.554 26.9679 146.688 27.17 146.779 27.3927C146.871 27.6155 146.916 27.8543 146.914 28.0952C146.917 28.3362 146.872 28.5753 146.78 28.7981C146.689 29.021 146.554 29.223 146.384 29.3922C146.217 29.5711 146.015 29.7129 145.791 29.8082C145.567 29.9036 145.325 29.9505 145.081 29.9458Z" fill="white"/>
<path d="M151.502 47.6268V38.8308C151.473 37.5875 151.785 36.3603 152.405 35.2846C153.004 34.2749 153.87 33.4532 154.906 32.9113C156.032 32.3315 157.282 32.0403 158.545 32.0635C159.815 32.0365 161.07 32.3278 162.2 32.9113C163.231 33.4548 164.092 34.2765 164.686 35.2846C165.306 36.3603 165.618 37.5875 165.589 38.8308V47.6268H162.869V38.8618C162.889 38.0304 162.679 37.2097 162.261 36.4924C161.877 35.8403 161.325 35.3052 160.663 34.9439C160.013 34.5893 159.285 34.4043 158.545 34.4057C157.806 34.4043 157.078 34.5893 156.428 34.9439C155.767 35.3042 155.215 35.8396 154.833 36.4924C154.414 37.209 154.204 38.0302 154.226 38.8618V47.6268H151.502Z" fill="white"/>
<path d="M176.924 47.9868C175.585 48.0196 174.266 47.6504 173.136 46.9261C172.067 46.2163 171.217 45.2201 170.68 44.0496C170.098 42.7894 169.805 41.4132 169.823 40.0232C169.803 38.6193 170.128 37.2322 170.768 35.9853C171.39 34.7907 172.335 33.7975 173.493 33.1204C174.792 32.3857 176.265 32.0203 177.754 32.0635C179.194 32.0228 180.617 32.3831 181.866 33.1049C182.994 33.7833 183.912 34.7645 184.518 35.9388C185.147 37.174 185.466 38.5459 185.448 39.9342V47.6268H182.696V44.5296H182.639C182.321 45.1376 181.917 45.6957 181.44 46.1866C180.901 46.7361 180.264 47.1764 179.561 47.4836C178.727 47.8359 177.829 48.0074 176.924 47.9868ZM177.635 45.6291C178.56 45.6458 179.47 45.3931 180.256 44.9013C181.022 44.4028 181.636 43.7007 182.031 42.8726C182.463 41.9659 182.68 40.9707 182.665 39.9652C182.683 38.986 182.475 38.016 182.058 37.1313C181.677 36.3211 181.078 35.6345 180.329 35.1491C179.541 34.6503 178.624 34.3959 177.693 34.4174C176.728 34.3891 175.776 34.6491 174.957 35.1645C174.199 35.6568 173.594 36.3546 173.212 37.1777C172.794 38.0772 172.587 39.0612 172.605 40.0542C172.591 41.0264 172.794 41.9894 173.197 42.8726C173.57 43.6924 174.163 44.39 174.911 44.8858C175.726 45.3996 176.674 45.6583 177.635 45.6291Z" fill="white"/>
<path d="M190.498 47.6268V38.8308C190.469 37.5875 190.782 36.3603 191.401 35.2846C192 34.2749 192.866 33.4532 193.903 32.9113C195.028 32.3315 196.278 32.0403 197.542 32.0635C198.812 32.0371 200.069 32.3284 201.2 32.9113C202.229 33.4559 203.089 34.2774 203.682 35.2846C204.302 36.3603 204.614 37.5875 204.585 38.8308V47.6268H201.865V38.8618C201.885 38.0304 201.675 37.2097 201.257 36.4924C200.874 35.8395 200.322 35.3041 199.659 34.9439C199.009 34.5893 198.281 34.4043 197.542 34.4057C196.804 34.4043 196.077 34.5893 195.428 34.9439C194.765 35.3041 194.213 35.8395 193.83 36.4924C193.41 37.209 193.2 38.0302 193.222 38.8618V47.6268H190.498Z" fill="white"/>
<path d="M216.97 47.6268C215.516 47.6535 214.079 47.3043 212.797 46.6125C211.612 45.9785 210.612 45.0445 209.895 43.9025C209.18 42.7414 208.81 41.3976 208.831 40.031C208.81 38.6643 209.179 37.3203 209.895 36.1595C210.614 35.0188 211.613 34.0851 212.797 33.4495C214.08 32.7595 215.516 32.4104 216.97 32.4352H218.745V34.7929H216.881C215.932 34.7772 214.997 35.0193 214.172 35.4936C213.386 35.9456 212.733 36.5986 212.278 37.3868C211.811 38.1907 211.571 39.1075 211.582 40.0387C211.571 40.9712 211.811 41.8893 212.278 42.6946C212.735 43.481 213.388 44.1336 214.172 44.5877C214.997 45.0603 215.933 45.3022 216.881 45.2885H218.745V47.6423L216.97 47.6268Z" fill="white"/>
<path d="M230.258 47.6268C228.736 47.6553 227.227 47.3349 225.846 46.6899C224.616 46.1091 223.576 45.188 222.845 44.0341C222.106 42.8312 221.729 41.4377 221.762 40.0232C221.74 38.6124 222.055 37.2169 222.68 35.9543C223.257 34.7892 224.138 33.8042 225.228 33.1049C226.363 32.397 227.678 32.0353 229.013 32.0635C230.381 32.0111 231.734 32.3638 232.905 33.0778C233.927 33.7329 234.735 34.675 235.23 35.7879C235.755 36.9957 236.017 38.3024 235.999 39.6206C235.999 39.8413 235.999 40.0697 235.999 40.3058C235.993 40.5167 235.969 40.7266 235.926 40.933H224.678C224.749 41.7961 225.068 42.6196 225.597 43.3024C226.115 43.9541 226.793 44.4584 227.564 44.7658C228.408 45.1007 229.309 45.2677 230.216 45.2575H234.151V47.6113L230.258 47.6268ZM224.632 39.0089H233.248C233.243 38.6035 233.203 38.1993 233.128 37.801C233.045 37.3676 232.906 36.9471 232.713 36.5505C232.52 36.1422 232.26 35.7693 231.945 35.4472C231.596 35.1095 231.183 34.8461 230.731 34.6729C230.187 34.4638 229.609 34.3626 229.028 34.3748C228.4 34.3552 227.777 34.488 227.211 34.7619C226.695 35.0251 226.236 35.3897 225.862 35.8343C225.489 36.2804 225.199 36.7906 225.005 37.3403C224.808 37.8775 224.683 38.4386 224.632 39.0089Z" fill="white"/>
<path d="M119.965 39.7909H124.019C125.01 39.7909 125.961 40.1878 126.662 40.8943C127.364 41.6007 127.758 42.5588 127.758 43.5579V47.6578H123.688C122.697 47.6578 121.746 47.2609 121.044 46.5545C120.343 45.848 119.949 44.8899 119.949 43.8908V39.7909H119.965Z" fill="#8EC300"/>
</svg>
